<svg xmlns="http://www.w3.org/2000/svg" width="512" height="512" viewBox="0 0 512 512" fill="none">
  <rect width="512" height="512" rx="96" fill="#050505" />
  <g transform="translate(116 116) scale(11.667)" fill="none" stroke="#00ed3f" stroke-width="1.5" stroke-linecap="round" stroke-linejoin="round">
    <path d="M9 9v-1a3 3 0 0 1 6 0v1" />
    <path d="M8 9h8a6 6 0 0 1 1 3v3a5 5 0 0 1 -10 0v-3a6 6 0 0 1 1 -3" />
    <path d="M3 13l4 0" />
    <path d="M17 13l4 0" />
    <path d="M12 20l0 -6" />
    <path d="M4 19l3.35 -2" />
    <path d="M20 19l-3.35 -2" />
    <path d="M4 7l3.75 2.4" />
    <path d="M20 7l-3.75 2.4" />
  </g>
</svg>
